<!DOCTYPE svg PUBLIC "-//W3C//DTD SVG 1.1//EN" "http://www.w3.org/Graphics/SVG/1.1/DTD/svg11.dtd">

<!-- Uploaded to: SVG Repo, www.svgrepo.com, Transformed by: SVG Repo Mixer Tools -->
<svg fill="#000000" width="50px" height="50px" viewBox="-8.4 -8.4 51.80 51.80" data-name="Layer 2" id="ee13b174-13f0-43ea-b921-f168b1054f8d" xmlns="http://www.w3.org/2000/svg">

<g id="SVGRepo_bgCarrier" stroke-width="0" transform="translate(0,0), scale(1)">

<rect x="-8.4" y="-8.4" width="51.80" height="51.80" rx="25.9" fill="#ffffff" strokewidth="0"/>

</g>

<g id="SVGRepo_tracerCarrier" stroke-linecap="round" stroke-linejoin="round" stroke="#CCCCCC" stroke-width="0.21000000000000002"/>

<g id="SVGRepo_iconCarrier">

<path d="M29.384,30.381H5.615A5.372,5.372,0,0,1,.25,25.015V9.984A5.371,5.371,0,0,1,5.615,4.619H29.384A5.372,5.372,0,0,1,34.75,9.984V25.015A5.372,5.372,0,0,1,29.384,30.381ZM5.615,7.119A2.868,2.868,0,0,0,2.75,9.984V25.015a2.868,2.868,0,0,0,2.865,2.866H29.384a2.869,2.869,0,0,0,2.866-2.866V9.984a2.869,2.869,0,0,0-2.866-2.865Z"/>

<path d="M17.486,20.865a4.664,4.664,0,0,1-2.9-.975L1.218,9.237A1.25,1.25,0,1,1,2.777,7.282L16.141,17.935a2.325,2.325,0,0,0,2.7-.007L32.04,7.287a1.249,1.249,0,1,1,1.569,1.945L20.414,19.873A4.675,4.675,0,0,1,17.486,20.865Z"/>

</g>

</svg>